<svg width="106" height="160" viewBox="0 0 106 160" fill="none" xmlns="http://www.w3.org/2000/svg">
<g clip-path="url(#clip0_636_18061)">
<path d="M29.8578 120.147H36.6933V118.298H29.8578V114.441H37.1851V112.599H27.7643V126.205H37.2419V124.356H29.8578V120.147Z" fill="#E60012"/>
<path d="M51.247 112.599H48.8824L45.5655 117.62L42.4126 112.599H39.9029L44.317 119.226L39.6444 126.205H42.0217L45.5466 120.876L48.9706 126.205H51.5245L46.8078 119.22L51.247 112.599Z" fill="#E60012"/>
<path d="M62.8937 113.418C62.1055 112.823 61.1029 112.592 59.3121 112.592H54.1729V126.199H56.2664V120.812H59.6589C61.0398 120.812 62.2127 120.416 63.0577 119.667C63.909 118.919 64.3504 117.87 64.3504 116.642C64.3504 116.008 64.2179 115.369 63.9594 114.806C63.7009 114.23 63.3288 113.744 62.8811 113.418H62.8937ZM62.0046 116.648C62.0046 117.403 61.7713 117.985 61.3236 118.382C60.8633 118.785 60.1886 118.989 59.3121 118.989H56.2727V114.441H59.6967C60.4408 114.441 61.0209 114.633 61.4119 115.017C61.8028 115.394 62.0046 115.944 62.0046 116.648Z" fill="#E60012"/>
<path d="M77.3025 114.192C76.1801 112.944 74.5847 112.279 72.6804 112.279C70.776 112.279 69.187 112.938 68.0582 114.192C66.9421 115.439 66.3494 117.211 66.3494 119.316V119.482C66.3494 121.586 66.9421 123.365 68.0582 124.612C69.1807 125.866 70.7823 126.525 72.6804 126.525C74.5784 126.525 76.1801 125.866 77.3025 124.612C78.4249 123.365 79.0114 121.593 79.0114 119.482V119.316C79.0114 117.211 78.4186 115.439 77.3025 114.192ZM72.6804 124.676C71.4381 124.676 70.3788 124.184 69.6158 123.243C68.8465 122.303 68.4429 120.979 68.4429 119.431C68.4429 117.883 68.8464 116.488 69.6094 115.548C70.3661 114.62 71.4507 114.128 72.7371 114.128C74.0235 114.128 75.0072 114.627 75.7576 115.567C76.5143 116.52 76.9178 117.844 76.9178 119.412C76.9178 120.979 76.5143 122.303 75.7513 123.243C74.9946 124.184 73.9289 124.676 72.6804 124.676Z" fill="#E60012"/>
<path d="M32.8973 138.685L33.4648 138.295C34.8331 137.361 35.6214 136.664 36.1006 135.96C36.5735 135.282 36.769 134.566 36.769 133.574C36.769 132.346 36.3528 131.303 35.552 130.561C34.7575 129.819 33.654 129.423 32.3487 129.423C30.3371 129.423 28.6787 130.453 28.0103 132.109L27.9725 132.199L29.612 133.434L29.6624 133.274C30.1227 131.892 30.9425 131.246 32.2478 131.246C33.7359 131.246 34.7007 132.212 34.7007 133.696C34.7007 134.278 34.5809 134.707 34.3034 135.122C34.0197 135.545 33.5404 135.986 32.7522 136.543C30.7029 137.988 29.675 138.775 29.0129 139.645C28.3319 140.528 28.0733 141.443 27.7833 143.035L27.7581 143.183H36.6933V141.353H30.1606C30.4002 140.681 30.974 140.01 32.891 138.685H32.8973Z" fill="#0068B7"/>
<path d="M46.0637 129.423C45.1808 129.423 44.4052 129.621 43.7494 130.005C43.1441 130.363 42.6396 130.888 42.2487 131.559C41.5676 132.724 41.2019 134.38 41.2019 136.344C41.2019 138.609 41.6244 140.368 42.4504 141.551C43.2891 142.754 44.5187 143.362 46.1141 143.362C46.8771 143.362 47.5707 143.202 48.1698 142.895C48.7688 142.588 49.2733 142.127 49.6832 141.532C50.5029 140.329 50.9191 138.596 50.9191 136.383C50.9191 131.892 49.1913 129.423 46.0573 129.423H46.0637ZM44.8529 131.547C45.1935 131.335 45.6033 131.233 46.0637 131.233C46.9969 131.233 47.6779 131.642 48.1383 132.487C48.6049 133.344 48.8445 134.662 48.8445 136.402C48.8445 138.142 48.6049 139.453 48.1256 140.304C47.659 141.142 46.9654 141.551 46.0195 141.551C45.5718 141.551 45.1745 141.443 44.834 141.231C44.4998 141.02 44.2098 140.701 43.9828 140.278C43.5098 139.408 43.2765 138.097 43.2765 136.376C43.2765 134.655 43.5161 133.344 43.9891 132.487C44.2224 132.071 44.5124 131.751 44.8529 131.54V131.547Z" fill="#0068B7"/>
<path d="M60.321 138.685L60.8885 138.295C62.2505 137.361 63.0387 136.664 63.5243 135.96C63.9909 135.282 64.1927 134.566 64.1927 133.574C64.1927 132.346 63.7702 131.303 62.9757 130.561C62.1812 129.819 61.0714 129.423 59.7724 129.423C57.7608 129.423 56.1024 130.453 55.434 132.109L55.3962 132.199L57.0357 133.434L57.0861 133.274C57.5464 131.892 58.3725 131.246 59.6778 131.246C61.1659 131.246 62.1307 132.212 62.1307 133.696C62.1307 134.278 62.0109 134.707 61.7335 135.122C61.4434 135.545 60.9705 135.986 60.1822 136.543C58.1329 137.988 57.105 138.775 56.4429 139.645C55.7619 140.528 55.5034 141.443 55.207 143.035L55.1818 143.183H64.117V141.353H57.5843C57.8239 140.681 58.3977 140.01 60.3147 138.685H60.321Z" fill="#0068B7"/>
<path d="M77.2204 135.244C76.4826 134.476 75.417 134.067 74.1495 134.067C73.0901 134.067 72.2767 134.278 71.4822 134.77L71.829 131.476H77.542V129.608H70.2967L69.4202 136.926L71.1101 137.048L71.148 137.009C71.8983 136.216 72.9073 135.781 74.0045 135.781C74.7107 135.781 75.2845 136.018 75.6755 136.453C76.0665 136.901 76.2745 137.56 76.2745 138.359C76.2745 139.376 76.0286 140.163 75.5368 140.694C75.0449 141.231 74.3324 141.5 73.4054 141.5C72.7811 141.5 72.2578 141.372 71.8101 141.123C71.3687 140.873 70.9651 140.477 70.5867 139.914L70.5111 139.811L69.0166 140.944L69.086 141.039C69.6346 141.833 70.2462 142.402 70.9588 142.773C71.6713 143.144 72.4911 143.323 73.4622 143.323C74.9062 143.323 76.1295 142.856 77.0123 141.98C77.8951 141.097 78.3617 139.869 78.3617 138.43C78.3617 137.112 77.9708 136.005 77.233 135.237L77.2204 135.244Z" fill="#0068B7"/>
<path d="M29.0065 106.394C28.1931 106.394 27.6697 106.976 27.6697 107.878V107.91C27.6697 108.812 28.1931 109.394 29.0065 109.394C29.8199 109.394 30.3433 108.812 30.3433 107.91V107.878C30.3433 106.976 29.8199 106.394 29.0065 106.394ZM29.0065 108.985C28.4831 108.985 28.13 108.55 28.13 107.897C28.13 107.245 28.4705 106.797 29.0191 106.797C29.5299 106.797 29.883 107.238 29.883 107.891C29.883 108.543 29.5425 108.978 29.0128 108.978L29.0065 108.985Z" fill="#231815"/>
<path d="M32.8531 107.84C32.7017 107.769 32.5441 107.718 32.1847 107.628C31.8505 107.545 31.8126 107.526 31.7243 107.481C31.6108 107.424 31.5478 107.315 31.5478 107.187C31.5478 106.957 31.7559 106.81 32.0901 106.81C32.3991 106.81 32.645 106.925 32.8594 107.149L32.8846 107.174L33.2251 106.906L33.1999 106.874C32.8909 106.547 32.5441 106.394 32.0901 106.394C31.491 106.394 31.0685 106.733 31.0685 107.219C31.0685 107.494 31.201 107.712 31.4532 107.846C31.5856 107.916 31.6298 107.929 31.964 108.019C32.4936 108.159 32.5315 108.179 32.6198 108.223C32.7459 108.3 32.8026 108.39 32.8026 108.518C32.8026 108.78 32.5315 108.972 32.1531 108.972C31.9261 108.972 31.7306 108.908 31.573 108.786C31.4973 108.729 31.4217 108.646 31.3334 108.53L31.3082 108.498L30.9487 108.773L30.974 108.799C31.0811 108.933 31.1757 109.042 31.2703 109.119C31.5036 109.298 31.8378 109.407 32.172 109.407C32.8215 109.407 33.2882 109.036 33.2882 108.518C33.2882 108.211 33.1305 107.961 32.8468 107.84H32.8531Z" fill="#231815"/>
<path d="M35.3816 106.464H34.915L33.8052 109.33H34.2844L34.5366 108.645H35.741L35.987 109.33H36.4914L35.3816 106.464ZM35.596 108.242H34.6817L35.142 106.976L35.596 108.242Z" fill="#231815"/>
<path d="M38.3264 107.628L39.5245 106.464H38.9129L37.595 107.775V106.464H37.1346V109.324H37.595V108.332L38.0048 107.948L38.9633 109.311L38.9696 109.324H39.5498L38.3264 107.628Z" fill="#231815"/>
<path d="M41.5928 106.464H41.1262L40.0164 109.33H40.4956L40.7478 108.645H41.9522L42.1982 109.33H42.7026L41.5928 106.464ZM41.8009 108.242H40.8866L41.3532 106.976L41.8009 108.242Z" fill="#231815"/>
<path d="M43.3017 108.805V109.323H43.5287C43.5224 109.477 43.4594 109.592 43.3396 109.675L43.2954 109.701L43.5224 109.88L43.5476 109.861C43.7431 109.695 43.8188 109.522 43.8188 109.234V108.799H43.308L43.3017 108.805Z" fill="#231815"/>
<path d="M46.5429 107.628L47.741 106.464H47.1356L45.8177 107.775V106.464H45.3574V109.324H45.8177V108.332L46.2213 107.948L47.1798 109.311L47.1924 109.324H47.7725L46.5429 107.628Z" fill="#231815"/>
<path d="M49.8598 106.464H49.3931L48.2833 109.33H48.7626L49.0148 108.645H50.2192L50.4651 109.33H50.9696L49.8598 106.464ZM50.0742 108.242H49.1598L49.6201 106.976L50.0742 108.242Z" fill="#231815"/>
<path d="M53.5549 106.458V108.633L52.0983 106.477L52.092 106.458H51.619V109.324H52.0604V107.155L53.5044 109.311L53.5171 109.324H53.9963V106.458H53.5549Z" fill="#231815"/>
<path d="M56.7015 107.84C56.5502 107.769 56.3862 107.718 56.0331 107.628C55.6989 107.545 55.661 107.526 55.5728 107.481C55.4593 107.424 55.3962 107.315 55.3962 107.187C55.3962 106.957 55.598 106.81 55.9322 106.81C56.2349 106.81 56.4934 106.925 56.7015 107.149L56.7204 107.174L57.0672 106.906L57.042 106.874C56.733 106.547 56.3799 106.394 55.9322 106.394C55.3331 106.394 54.9107 106.733 54.9107 107.219C54.9107 107.494 55.0431 107.712 55.289 107.846C55.4214 107.916 55.4719 107.929 55.7998 108.019C56.3295 108.159 56.3673 108.179 56.4556 108.223C56.588 108.3 56.6384 108.39 56.6384 108.518C56.6384 108.78 56.3673 108.972 55.9889 108.972C55.7682 108.972 55.5665 108.908 55.4088 108.786C55.3332 108.729 55.2575 108.646 55.1692 108.53L55.144 108.498L54.7845 108.773L54.8098 108.799C54.917 108.933 55.0052 109.042 55.1061 109.119C55.3331 109.298 55.6737 109.407 56.0079 109.407C56.6574 109.407 57.124 109.036 57.124 108.518C57.124 108.211 56.9663 107.961 56.6889 107.84H56.7015Z" fill="#231815"/>
<path d="M59.2364 106.483V106.458H58.7572L57.6726 109.272L57.6537 109.324H58.1329L58.3789 108.639H59.5833L59.8292 109.324H60.3336L59.2364 106.483ZM59.4382 108.243H58.5239L58.9905 106.976L59.4382 108.243Z" fill="#231815"/>
<path d="M61.5001 106.458H61.0398V109.324H61.5001V106.458Z" fill="#231815"/>
<path d="M62.2569 108.805V109.323H62.4776C62.4776 109.477 62.4082 109.592 62.2884 109.675L62.2443 109.701L62.4713 109.88L62.4902 109.861C62.6857 109.695 62.7613 109.522 62.7613 109.234V108.799H62.2506L62.2569 108.805Z" fill="#231815"/>
<path d="M65.5043 106.458V108.537C65.5043 108.857 65.3908 108.985 65.1133 108.985C64.9179 108.985 64.7413 108.908 64.6341 108.767C64.59 108.716 64.5458 108.626 64.5206 108.562L64.5017 108.518L64.1675 108.773L64.1801 108.799C64.2053 108.876 64.2621 108.965 64.3062 109.023C64.5017 109.266 64.7728 109.394 65.1196 109.394C65.6367 109.394 65.9646 109.093 65.9646 108.594V106.458H65.5043Z" fill="#231815"/>
<path d="M68.2663 106.483V106.458H67.7871L66.6962 109.272L66.6772 109.324H67.1565L67.4087 108.639H68.6131L68.859 109.324H69.3635L68.2663 106.483ZM68.4681 108.243H67.5537L68.0204 106.976L68.4681 108.243Z" fill="#231815"/>
<path d="M71.9803 106.63C71.8101 106.503 71.602 106.458 71.2236 106.458H70.139V109.324H70.5994V108.198H71.2993C71.8983 108.198 72.2956 107.846 72.2956 107.315C72.2956 107.033 72.1758 106.771 71.9866 106.63H71.9803ZM71.7722 107.315C71.7722 107.712 71.4759 107.795 71.2236 107.795H70.5994V106.867H71.3056C71.6083 106.867 71.7785 107.027 71.7785 107.315H71.7722Z" fill="#231815"/>
<path d="M74.1117 106.483V106.458H73.6387L72.5479 109.272L72.5289 109.324H73.0082L73.2541 108.639H74.4585L74.7044 109.324H75.2089L74.1054 106.483H74.1117ZM74.3135 108.243H73.3991L73.8594 106.976L74.3072 108.243H74.3135Z" fill="#231815"/>
<path d="M77.7943 106.458V108.633L76.3376 106.477L76.325 106.458H75.8584V109.324H76.2998V107.155L77.7438 109.311L77.7564 109.324H78.2357V106.458H77.7943Z" fill="#231815"/>
<path d="M90.5382 44.0045C90.5382 40.435 84.5666 37.5116 77.0376 37.3133C78.8284 35.1832 79.913 32.4261 79.913 29.4131C79.913 22.6836 74.5342 17.227 67.9005 17.227C63.3414 17.227 59.3814 19.8049 57.3509 23.5983C56.2411 19.6898 52.6973 16.824 48.4913 16.824C43.4026 16.824 39.2723 21.0076 39.2723 26.1763C39.2723 26.381 39.2786 26.5857 39.2975 26.7904C38.6039 26.5665 37.8787 26.4514 37.122 26.4514C32.771 26.4514 29.2398 30.3535 29.2398 35.1704C29.2398 35.6054 29.2713 36.034 29.3281 36.4562C27.9219 35.535 26.2509 34.9977 24.46 34.9977C19.4911 34.9977 15.468 39.0789 15.468 44.1197C15.468 48.1305 18.0219 51.5401 21.5783 52.7555C18.5326 54.6554 16.5022 58.065 16.5022 61.9607C16.5022 67.9226 21.263 72.7587 27.1463 72.7587C27.5183 72.7587 27.8904 72.7395 28.2498 72.7012C28.0985 73.5711 28.0228 74.4859 28.0228 75.439C28.0228 80.6973 30.4694 84.9961 33.5404 85.2391C33.3323 85.9684 33.2188 86.7424 33.2188 87.5356C33.2188 92.0583 36.832 95.7237 41.2901 95.7237C43.3395 95.7237 45.206 94.9497 46.6248 93.6767C48.3085 97.8219 52.3316 100.739 57.0294 100.739C63.2468 100.739 68.2852 95.6278 68.2852 89.3204C68.2852 88.5847 68.2095 87.8683 68.0834 87.1646C69.7166 87.8299 71.5326 88.2009 73.4433 88.2009C80.6382 88.2009 86.471 82.949 86.471 76.4753C86.471 72.0359 83.728 68.1721 79.686 66.1827C82.1515 64.3276 83.7973 60.9884 83.7973 57.163C83.7973 54.4827 82.9902 52.0455 81.6597 50.184C86.8746 49.186 90.5508 46.7872 90.5508 43.9853L90.5382 44.0045ZM47.8292 82.7571C46.3663 80.6973 43.9764 79.3604 41.2838 79.3604C40.5082 79.3604 39.7642 79.4691 39.0516 79.6802C39.4173 78.4008 39.6191 76.9679 39.6191 75.4518C39.6191 71.7544 38.4147 68.5368 36.6302 66.8608C37.368 65.3895 37.7841 63.7327 37.7841 61.9735C37.7841 59.9073 37.2103 57.9754 36.2203 56.3378C36.3212 56.3378 36.4284 56.3442 36.523 56.3442C40.8172 56.3442 44.298 52.8131 44.298 48.4632C44.298 46.0388 43.2197 43.8638 41.5172 42.4245C43.6233 40.8572 45.0042 38.2025 45.0042 35.1832C45.0042 35.068 45.0042 34.9529 45.0042 34.8377C46.0825 35.2855 47.2617 35.535 48.4976 35.535C51.6442 35.535 54.4188 33.9358 56.0835 31.4985C56.8086 35.7845 59.7408 39.3028 63.6504 40.8061C62.5406 41.7592 61.91 42.8467 61.91 44.0109C61.91 46.4993 64.817 48.6743 69.1301 49.8321C67.6293 51.732 66.7024 54.3292 66.7024 57.195C66.7024 60.4318 67.8816 63.3233 69.7418 65.2615C64.344 66.6944 60.4029 71.1851 60.4029 76.5073C60.4029 77.1982 60.4723 77.8699 60.5984 78.5288C59.4697 78.1449 58.2716 77.9338 57.023 77.9338C53.227 77.9338 49.866 79.8401 47.8292 82.7635V82.7571Z" fill="#E60012"/>
<path d="M84.6108 77.4925C84.6108 80.7293 81.748 83.3584 78.2231 83.3584C74.6981 83.3584 71.8353 80.7293 71.8353 77.4925C71.8353 74.2556 74.6981 71.6265 78.2231 71.6265C81.748 71.6265 84.6108 74.2556 84.6108 77.4925Z" fill="white"/>
<path d="M84.2262 76.1298C84.2262 77.6715 82.9965 78.9189 81.4769 78.9189C79.9572 78.9189 78.7275 77.6715 78.7275 76.1298C78.7275 74.5881 79.9572 73.3344 81.4769 73.3344C82.9965 73.3344 84.2262 74.5881 84.2262 76.1298Z" fill="#0068B7"/>
<path d="M75.6945 24.9224C75.6945 27.8266 73.374 30.1807 70.5175 30.1807C67.6546 30.1807 65.3341 27.8266 65.3341 24.9224C65.3341 22.0182 67.6546 19.6705 70.5175 19.6705C73.3803 19.6705 75.6945 22.0246 75.6945 24.9224Z" fill="white"/>
<path d="M74.7486 22.8435C74.7486 24.2444 73.6324 25.3767 72.2515 25.3767C70.8705 25.3767 69.7544 24.238 69.7544 22.8435C69.7544 21.449 70.8705 20.3103 72.2515 20.3103C73.6324 20.3103 74.7486 21.4426 74.7486 22.8435Z" fill="#0068B7"/>
<path d="M26.7049 43.288C26.7049 45.8596 24.6492 47.9386 22.1206 47.9386C19.592 47.9386 17.53 45.8532 17.53 43.288C17.53 40.7228 19.5857 38.6375 22.1206 38.6375C24.6556 38.6375 26.7112 40.7165 26.7112 43.288H26.7049Z" fill="white"/>
<path d="M22.2783 42.0343C22.2783 43.2689 21.2946 44.2668 20.0775 44.2668C18.8605 44.2668 17.8768 43.2689 17.8768 42.0343C17.8768 40.7997 18.8605 39.8018 20.0775 39.8018C21.2946 39.8018 22.2783 40.7997 22.2783 42.0343Z" fill="#0068B7"/>
<path d="M34.7637 63.6047C34.7637 66.2402 32.5945 68.3704 29.9208 68.3704C27.2472 68.3704 25.078 66.2338 25.078 63.6047C25.078 60.9756 27.2472 58.839 29.9208 58.839C32.5945 58.839 34.7637 60.9756 34.7637 63.6047Z" fill="white"/>
<path d="M27.386 61.1738C27.386 62.4596 28.4138 63.5023 29.6813 63.5023C30.9487 63.5023 31.9766 62.466 31.9766 61.1738C31.9766 59.8816 30.9487 58.8453 29.6813 58.8453C28.4138 58.8453 27.386 59.888 27.386 61.1738Z" fill="#0068B7"/>
<path d="M59.9553 93.4464C59.9553 95.6405 58.2023 97.4189 56.0394 97.4189C53.8765 97.4189 52.1235 95.6405 52.1235 93.4464C52.1235 91.2522 53.8765 89.4739 56.0394 89.4739C58.2023 89.4739 59.9553 91.2522 59.9553 93.4464Z" fill="white"/>
<path d="M54.3368 95.6917C54.3368 94.7322 55.0998 93.9581 56.0394 93.9581C56.9789 93.9581 57.7482 94.7322 57.7482 95.6917C57.7482 96.6512 56.9852 97.4189 56.0394 97.4189C55.0935 97.4189 54.3368 96.6448 54.3368 95.6917Z" fill="#0068B7"/>
<path d="M75.9466 91.329H75.2845V93.1074H75.0071V91.329H74.345V91.0859H75.9529V91.329H75.9466Z" fill="#231815"/>
<path d="M78.2357 91.0923V93.1073H77.9708V91.4377L77.4159 92.3973H77.1574L76.6025 91.4377V93.1073H76.3376V91.0923H76.6719L77.2835 92.1478L77.9015 91.0923H78.2357Z" fill="#231815"/>
</g>
<defs>
<clipPath id="clip0_636_18061">
<rect width="106" height="160" fill="white"/>
</clipPath>
</defs>
</svg>
